Coordinates
version=1
nRows=16
nColumns=42
inDegrees=yes

Units are S.I. units (second, meters, Newtons, ...)
If the header above contains a line with 'inDegrees', this indicates whether rotational values are in degrees (yes) or radians (no).

endheader
time	pelvis_tilt	pelvis_list	pelvis_rotation	pelvis_tx	pelvis_ty	pelvis_tz	hip_flexion_r	hip_adduction_r	hip_rotation_r	knee_angle_r	knee_adduction_r	knee_angle_r_beta	ankle_angle_r	subtalar_angle_r	mtp_angle_r	hip_flexion_l	hip_adduction_l	hip_rotation_l	knee_angle_l	knee_adduction_l	knee_angle_l_beta	ankle_angle_l	subtalar_angle_l	mtp_angle_l	lumbar_extension	lumbar_bending	lumbar_rotation	arm_flex_r	arm_add_r	arm_rot_r	elbow_flex_r	pro_sup_r	wrist_flex_r	wrist_dev_r	arm_flex_l	arm_add_l	arm_rot_l	elbow_flex_l	pro_sup_l	wrist_flex_l	wrist_dev_l
      3.04000000	      5.56760224	     -3.59217241	     -5.22461993	     -0.79605782	      0.94365898	      0.20491068	      6.99545017	     -8.04734780	     -8.73683614	     48.00574486	      2.56128052	      0.83785831	      3.74612001	     -2.68847601	     -7.53304594	      5.37494031	     -4.95948151	    -26.81553714	     29.35769876	     -2.73775978	      0.51238850	     15.44781479	      2.46557140	     -7.53304594	    -19.90855361	      2.73437266	     -1.56648493	      8.66665599	    -14.51402972	     16.05144763	     48.21086703	     90.00000001	      0.00000000	      0.00000000	    -17.66168387	    -10.73734851	     -2.58894495	     49.44193034	     90.00000001	      0.00000000	      0.00000000
      3.05000000	      5.69129411	     -3.79926988	     -5.31642458	     -0.79477146	      0.94423842	      0.20469807	      7.08154589	     -7.88670307	     -8.36325585	     48.32725102	      2.84833934	      0.84346965	      2.22398010	     -4.67132156	     -7.53146338	      4.95730001	     -5.18995208	    -26.85406900	     29.15055271	     -2.52630114	      0.50877312	     15.66343329	      2.75393527	     -7.53146338	    -20.03883218	      2.84276081	     -1.38716783	      8.70578759	    -14.65557404	     16.10226402	     48.15628076	     90.00000001	      0.00000000	      0.00000000	    -17.90097328	    -10.56510525	     -2.95257475	     49.61496017	     90.00000001	      0.00000000	      0.00000000
      3.06000000	      5.73909101	     -3.99512324	     -5.34556124	     -0.79341590	      0.94463941	      0.20437560	      7.20048628	     -7.83181407	     -8.44078888	     48.58613509	      3.00493250	      0.84798803	      2.13636498	     -4.67035768	     -7.53137741	      4.72906649	     -5.35684324	    -26.83028311	     29.06788389	     -2.50403510	      0.50733028	     15.67426103	      2.75297111	     -7.53137741	    -20.05437633	      2.98940488	     -1.26821830	      8.66773902	    -14.77564555	     16.06767991	     48.11144980	     90.00000001	      0.00000000	      0.00000000	    -18.13866979	    -10.53086927	     -2.96218075	     49.53818459	     90.00000001	      0.00000000	      0.00000000
      3.07000000	      5.86111182	     -4.17380587	     -5.48009300	     -0.79207315	      0.94512240	      0.20421065	      7.31782925	     -7.75632591	     -8.50460444	     48.86456042	      3.01240400	      0.85284747	      1.67012352	     -4.92521715	     -7.53105776	      4.30246606	     -5.52525572	    -26.83802077	     28.83259837	     -2.30923930	      0.50322377	     15.81085312	      2.73618479	     -7.53105776	    -20.16770127	      3.07453349	     -1.03416408	      8.65977032	    -14.92347247	     16.04208889	     47.99346100	     90.00000001	      0.00000000	      0.00000000	    -18.29569324	    -10.41876725	     -3.05851118	     49.52848337	     90.00000001	      0.00000000	      0.00000000
      3.08000000	      5.89479886	     -4.33881206	     -5.54227626	     -0.79073350	      0.94547157	      0.20396868	      7.45726496	     -7.73448878	     -8.63063888	     48.98161157	      3.15236008	      0.85489039	      1.61610584	     -4.95960991	     -7.53098505	      4.10914247	     -5.64894892	    -26.79396343	     28.79069863	     -2.31158148	      0.50249249	     15.81506258	      2.73560558	     -7.53098505	    -20.17551498	      3.19128298	     -0.88610341	      8.64367395	    -14.99463770	     16.01856880	     47.96643406	     90.00000001	      0.00000000	      0.00000000	    -18.53620950	    -10.36549823	     -3.06957995	     49.46370742	     90.00000001	      0.00000000	      0.00000000
      3.09000000	      5.93780018	     -4.50626381	     -5.64918831	     -0.78942050	      0.94582070	      0.20380705	      7.63260582	     -7.69119756	     -8.76374034	     49.08866175	      3.24945745	      0.85675877	      1.54605308	     -5.02572993	     -7.53092680	      3.86576576	     -5.78917638	    -26.79811865	     28.69498720	     -2.24935093	      0.50082201	     15.84757134	      2.71761886	     -7.53092680	    -20.20273864	      3.29919416	     -0.73839336	      8.62706817	    -15.10070930	     15.98957914	     47.91556900	     90.00000001	      0.00000000	      0.00000000	    -18.75604865	    -10.27470539	     -3.07948746	     49.41185471	     90.00000001	      0.00000000	      0.00000000
      3.10000000	      5.98768844	     -4.68252967	     -5.79396368	     -0.78808351	      0.94615673	      0.20372142	      7.82876527	     -7.62623417	     -8.91968594	     49.15134577	      3.29632827	      0.85785282	      1.45364343	     -5.14948612	     -7.53087371	      3.57226579	     -5.95389773	    -26.83716472	     28.54086916	     -2.13943722	      0.49813214	     15.91633479	      2.67578057	     -7.53087371	    -20.23178339	      3.41631315	     -0.52659426	      8.62026565	    -15.22535881	     15.96167928	     47.83712038	     90.00000001	      0.00000000	      0.00000000	    -18.98035500	    -10.14306404	     -3.10205301	     49.36985973	     90.00000001	      0.00000000	      0.00000000
      3.11000000	      6.08763912	     -4.94317655	     -5.93132406	     -0.78684718	      0.94667460	      0.20374035	      7.95127642	     -7.32364210	     -8.94760251	     49.02215263	      3.27295184	      0.85559797	      0.51037576	     -6.70824728	     -7.52957145	      3.16878334	     -6.21403982	    -26.65223822	     28.31948600	     -1.84585464	      0.49426827	     16.07365836	      2.29840026	     -7.52957145	    -20.36658339	      3.60571891	     -0.34335356	      8.71658573	    -15.29942503	     15.92575932	     47.44209709	     90.00000001	      0.00000000	      0.00000000	    -19.18423891	     -9.70606013	     -4.09335769	     49.60168062	     90.00000001	      0.00000000	      0.00000000
      3.12000000	      6.10648034	     -5.06892210	     -6.11646832	     -0.78557612	      0.94694382	      0.20376777	      8.20304023	     -7.33544133	     -9.11715322	     48.88465732	      3.40611681	      0.85319822	      0.56225817	     -6.73908992	     -7.52952231	      2.95840949	     -6.29372228	    -26.67915986	     28.24196799	     -1.83511833	      0.49291533	     16.10941712	      2.26069317	     -7.52952231	    -20.37439378	      3.66673618	     -0.14103871	      8.73465798	    -15.35048987	     15.91792306	     47.40869170	     90.00000001	      0.00000000	      0.00000000	    -19.38892620	     -9.60894149	     -4.10001204	     49.53342768	     90.00000001	      0.00000000	      0.00000000
      3.13000000	      6.11837796	     -5.21015416	     -6.31340512	     -0.78428143	      0.94720067	      0.20378378	      8.47122565	     -7.27439458	     -9.27589537	     48.65339935	      3.45483550	      0.84916201	      0.64096170	     -6.79947548	     -7.52948292	      2.72154981	     -6.39915332	    -26.76579344	     28.09883365	     -1.77074916	      0.49041716	     16.18110508	      2.18282255	     -7.52948292	    -20.38330022	      3.75148915	      0.06297510	      8.72728336	    -15.45963051	     15.90316974	     47.32982370	     90.00000001	      0.00000000	      0.00000000	    -19.57202201	     -9.44723565	     -4.11271417	     49.47976087	     90.00000001	      0.00000000	      0.00000000
      3.14000000	      6.13985984	     -5.39861391	     -6.52638974	     -0.78304260	      0.94750338	      0.20392300	      8.72645301	     -7.07955284	     -9.41456974	     48.25759347	      3.40534294	      0.84225390	      0.77207398	     -6.84724846	     -7.52937615	      2.46000826	     -6.57109973	    -26.82950086	     27.94931659	     -1.68662945	      0.48780760	     16.27920058	      2.04464408	     -7.52937615	    -20.43084510	      3.88849998	      0.33167139	      8.69790579	    -15.57942581	     15.89052145	     47.21305847	     90.00000001	      0.00000000	      0.00000000	    -19.69076434	     -9.24985845	     -4.18967829	     49.46616728	     90.00000001	      0.00000000	      0.00000000
      3.15000000	      6.14413313	     -5.49691482	     -6.73569223	     -0.78186051	      0.94767961	      0.20402437	      9.06618534	     -7.07137214	     -9.60156701	     47.89010919	      3.49483213	      0.83584008	      0.87306148	     -6.83429699	     -7.52929545	      2.27872027	     -6.63066067	    -26.85383235	     27.89270989	     -1.63321340	      0.48681962	     16.32552699	      1.97717624	     -7.52929545	    -20.46342532	      3.93026019	      0.52773480	      8.73478366	    -15.63201921	     15.87661032	     47.18971688	     90.00000001	      0.00000000	      0.00000000	    -19.85307988	     -9.12792996	     -4.22345157	     49.43190197	     90.00000001	      0.00000000	      0.00000000
      3.16000000	      6.11719106	     -5.62420566	     -6.93813968	     -0.78066790	      0.94787428	      0.20418616	      9.39829570	     -6.91980254	     -9.73929153	     47.27545139	      3.46812682	      0.82511228	      1.06472039	     -6.78296536	     -7.52919537	      2.09717280	     -6.73348834	    -26.94395823	     27.74910967	     -1.56718334	      0.48431333	     16.42304527	      1.81999607	     -7.52919537	    -20.47911511	      4.01677011	      0.74088898	      8.71562008	    -15.72870953	     15.86377098	     47.10645279	     90.00000001	      0.00000000	      0.00000000	    -19.99134762	     -8.91235163	     -4.29546432	     49.41380045	     90.00000001	      0.00000000	      0.00000000
      3.17000000	      6.14643205	     -5.85874053	     -7.12886334	     -0.77954520	      0.94813771	      0.20446315	      9.64554394	     -6.59945057	     -9.82727429	     46.52417313	      3.44156752	      0.81200000	      1.42969244	     -6.37759066	     -7.52884499	      1.88128419	     -6.96704307	    -26.87529745	     27.71938849	     -1.47045022	      0.48379460	     16.49563515	      1.49683148	     -7.52884499	    -20.59485068	      4.19854190	      0.99094491	      8.71537784	    -15.81173037	     15.84501862	     47.00609467	     90.00000001	      0.00000000	      0.00000000	    -20.04188255	     -8.66699721	     -4.60074637	     49.41809330	     90.00000001	      0.00000000	      0.00000000
      3.18000000	      6.15942822	     -5.90305275	     -7.35000702	     -0.77825206	      0.94822623	      0.20467086	     10.01314132	     -6.62315263	    -10.39550156	     45.87060399	      3.22289228	      0.80059307	      2.28670042	     -4.68010246	     -7.52717844	      1.65045962	     -6.91501864	    -26.57144546	     27.59712258	     -1.29661229	      0.48166065	     16.35836298	      0.50703719	     -7.52717844	    -20.61542672	      4.19508877	      1.05387077	      8.80951685	    -15.79587774	     15.86222734	     46.86814667	     90.00000001	      0.00000000	      0.00000000	    -20.09771813	     -8.10891299	     -5.91971033	     49.24414552	     90.00000001	      0.00000000	      0.00000000
      3.19000000	      6.09884879	     -5.93115363	     -7.57877330	     -0.77711914	      0.94821771	      0.20489522	     10.49653962	     -6.57296698	    -10.49598638	     45.13005551	      3.25416118	      0.78766806	      2.44639468	     -4.56197349	     -7.52701549	      1.56517506	     -6.87511412	    -26.63528953	     27.51636547	     -1.32589061	      0.48025118	     16.41579240	      0.43658843	     -7.52701549	    -20.59904974	      4.18312142	      1.18271986	      8.82275192	    -15.83635612	     15.85969483	     46.86265205	     90.00000001	      0.00000000	      0.00000000	    -20.19496807	     -7.96256569	     -5.92261755	     49.23528502	     90.00000001	      0.00000000	      0.00000000
